:FULLY-SPECIFIED
:FORCE-ALL-JOINTS-BE-3DOF
:DEGREES
3058
root -1.6242 15.9712 -34.1733 1087.58 2.44732 1.16394
lfemur -35.1031 4.82408 -3.00868
ltibia 55.9848 0 0
lfoot -10.1635 -3.26269 0
ltoes -42.2434 0 0
rfemur -37.0926 -5.30213 25.1794
rtibia 61.3279 0 0
rfoot -21.153 -27.9259 0
rtoes -1.16801 0 0
lowerback 13.2155 0.307055 -1.45019
upperback -1.18628 0.31268 1.63067
thorax -8.72902 0.265911 2.50382
lowerneck 3.87603 -9.01591 -11.9681
upperneck -3.18014 -12.3871 9.69685
head -0.19544 -6.25448 4.81899
lclavicle -4.74243e-15 -1.35174e-14 0
lhumerus 14.9547 -43.4469 86.9769
lradius 70.1248 0 0
lwrist -3.49684 0 0
lhand -28.3821 395.022 0
lfingers 7.12502 0 0
lthumb -1.75498 -655.006 0
rclavicle -4.74243e-15 -1.35174e-14 0
rhumerus 20.5776 46.5355 -49.9998
rradius 104.484 0 0
rwrist -44.1613 0 0
rhand -7.5541 -395.978 0
rfingers 7.12502 0 0
rthumb 18.3378 294.867 0
3059
root -1.58558 15.9749 -34.1547 1087.48 2.93953 1.14946
lfemur -34.9214 4.66392 -3.15928
ltibia 55.6719 0 0
lfoot -10.5452 -3.22773 0
ltoes -42.6029 0 0
rfemur -36.873 -5.13477 24.9819
rtibia 61.3193 0 0
rfoot -20.931 -27.8365 0
rtoes -1.66033 0 0
lowerback 13.1685 0.296374 -1.36495
upperback -1.18732 0.31165 1.61788
thorax -8.70236 0.26066 2.44154
lowerneck 3.77344 -8.89258 -11.8726
upperneck -3.07339 -12.211 9.64408
head -0.176156 -6.16507 4.78618
lclavicle -4.65724e-15 -1.43125e-14 0
lhumerus 13.895 -43.7432 87.4101
lradius 70.3261 0 0
lwrist -2.97294 0 0
lhand -28.3827 395.353 0
lfingers 7.12502 0 0
lthumb -1.75553 -654.675 0
rclavicle -4.65724e-15 -1.43125e-14 0
rhumerus 18.9592 47.0995 -50.9756
rradius 104.992 0 0
rwrist -43.8298 0 0
rhand -7.58472 -396.601 0
rfingers 7.12502 0 0
rthumb 18.3084 294.241 0
3060
root -1.54695 15.9786 -34.1362 1087.39 3.43174 1.13497
lfemur -34.7396 4.50376 -3.30987
ltibia 55.359 0 0
lfoot -10.9269 -3.19277 0
ltoes -42.9623 0 0
rfemur -36.6534 -4.96741 24.7843
rtibia 61.3108 0 0
rfoot -20.709 -27.7472 0
rtoes -2.15265 0 0
lowerback 13.1216 0.285693 -1.27971
upperback -1.18837 0.310621 1.60509
thorax -8.67569 0.25541 2.37927
lowerneck 3.67085 -8.76926 -11.777
upperneck -2.96663 -12.0349 9.59131
head -0.156871 -6.07566 4.75336
lclavicle -4.57205e-15 -1.51076e-14 0
lhumerus 12.8352 -44.0395 87.8433
lradius 70.5275 0 0
lwrist -2.44904 0 0
lhand -28.3833 395.684 0
lfingers 7.12502 0 0
lthumb -1.75609 -654.344 0
rclavicle -4.57205e-15 -1.51076e-14 0
rhumerus 17.3408 47.6635 -51.9513
rradius 105.499 0 0
rwrist -43.4983 0 0
rhand -7.61534 -397.225 0
rfingers 7.12502 0 0
rthumb 18.2789 293.614 0
3061
root -1.50833 15.9824 -34.1177 1087.29 3.92396 1.12048
lfemur -34.5578 4.34359 -3.46047
ltibia 55.0461 0 0
lfoot -11.3086 -3.15781 0
ltoes -43.3218 0 0
rfemur -36.4338 -4.80005 24.5867
rtibia 61.3023 0 0
rfoot -20.487 -27.6578 0
rtoes -2.64497 0 0
lowerback 13.0746 0.275012 -1.19446
upperback -1.18941 0.309591 1.5923
thorax -8.64902 0.250159 2.31699
lowerneck 3.56825 -8.64594 -11.6815
upperneck -2.85988 -11.8588 9.53854
head -0.137587 -5.98625 4.72055
lclavicle -4.48685e-15 -1.59028e-14 0
lhumerus 11.7754 -44.3358 88.2766
lradius 70.7289 0 0
lwrist -1.92513 0 0
lhand -28.3838 396.016 0
lfingers 7.12502 0 0
lthumb -1.75664 -654.012 0
rclavicle -4.48685e-15 -1.59028e-14 0
rhumerus 15.7225 48.2275 -52.927
rradius 106.007 0 0
rwrist -43.1668 0 0
rhand -7.64595 -397.849 0
rfingers 7.12502 0 0
rthumb 18.2494 292.988 0
3062
root -1.46971 15.9861 -34.0991 1087.19 4.41617 1.106
lfemur -34.3761 4.18343 -3.61106
ltibia 54.7333 0 0
lfoot -11.6902 -3.12284 0
ltoes -43.6813 0 0
rfemur -36.2141 -4.63269 24.3892
rtibia 61.2937 0 0
rfoot -20.2651 -27.5684 0
rtoes -3.13728 0 0
lowerback 13.0276 0.264331 -1.10922
upperback -1.19046 0.308561 1.57951
thorax -8.62236 0.244908 2.25471
lowerneck 3.46566 -8.52261 -11.586
upperneck -2.75313 -11.6827 9.48577
head -0.118303 -5.89683 4.68773
lclavicle -4.40166e-15 -1.66979e-14 0
lhumerus 10.7157 -44.6321 88.7098
lradius 70.9302 0 0
lwrist -1.40123 0 0
lhand -28.3844 396.347 0
lfingers 7.12502 0 0
lthumb -1.7572 -653.681 0
rclavicle -4.40166e-15 -1.66979e-14 0
rhumerus 14.1041 48.7915 -53.9028
rradius 106.515 0 0
rwrist -42.8352 0 0
rhand -7.67657 -398.472 0
rfingers 7.12502 0 0
rthumb 18.22 292.361 0
3063
root -1.43109 15.9898 -34.0806 1087.1 4.90838 1.09151
lfemur -34.1943 4.02327 -3.76166
ltibia 54.4204 0 0
lfoot -12.0719 -3.08788 0
ltoes -44.0407 0 0
rfemur -35.9945 -4.46533 24.1916
rtibia 61.2852 0 0
rfoot -20.0431 -27.4791 0
rtoes -3.6296 0 0
lowerback 12.9806 0.25365 -1.02398
upperback -1.1915 0.307532 1.56672
thorax -8.59569 0.239658 2.19243
lowerneck 3.36307 -8.39929 -11.4905
upperneck -2.64637 -11.5066 9.433
head -0.0990185 -5.80742 4.65492
lclavicle -4.31647e-15 -1.7493e-14 0
lhumerus 9.65589 -44.9284 89.143
lradius 71.1316 0 0
lwrist -0.87733 0 0
lhand -28.385 396.678 0
lfingers 7.12502 0 0
lthumb -1.75775 -653.35 0
rclavicle -4.31647e-15 -1.7493e-14 0
rhumerus 12.4858 49.3555 -54.8785
rradius 107.022 0 0
rwrist -42.5037 0 0
rhand -7.70719 -399.096 0
rfingers 7.12502 0 0
rthumb 18.1905 291.735 0
